<mxfile host="app.diagrams.net" agent="Mozilla/5.0 (Windows NT 10.0; Win64; x64) AppleWebKit/537.36 (KHTML, like Gecko) Chrome/130.0.0.0 Safari/537.36" version="24.8.6">
  <diagram name="Сторінка-1" id="T6b-u8_2h9Rg3N3_Kx2l">
    <mxGraphModel grid="1" page="1" gridSize="10" guides="1" tooltips="1" connect="1" arrows="1" fold="1" pageScale="1" pageWidth="827" pageHeight="1169" math="0" shadow="0">
      <root>
        <mxCell id="0" />
        <mxCell id="1" parent="0" />
        <mxCell id="tO1ti88L_NxjMnnKhhtb-3" value="" style="edgeStyle=orthogonalEdgeStyle;rounded=0;orthogonalLoop=1;jettySize=auto;html=1;" edge="1" parent="1" source="tO1ti88L_NxjMnnKhhtb-1" target="tO1ti88L_NxjMnnKhhtb-2">
          <mxGeometry relative="1" as="geometry" />
        </mxCell>
        <mxCell id="tO1ti88L_NxjMnnKhhtb-1" value="&lt;font style=&quot;font-size: 18px;&quot;&gt;Start&lt;/font&gt;" style="ellipse;whiteSpace=wrap;html=1;" vertex="1" parent="1">
          <mxGeometry x="70" y="20" width="120" height="80" as="geometry" />
        </mxCell>
        <mxCell id="tO1ti88L_NxjMnnKhhtb-6" value="" style="edgeStyle=orthogonalEdgeStyle;rounded=0;orthogonalLoop=1;jettySize=auto;html=1;" edge="1" parent="1" source="tO1ti88L_NxjMnnKhhtb-2">
          <mxGeometry relative="1" as="geometry">
            <mxPoint x="130" y="220" as="targetPoint" />
          </mxGeometry>
        </mxCell>
        <mxCell id="tO1ti88L_NxjMnnKhhtb-2" value="Iніціалізація масиву операцій та книжок" style="rounded=0;whiteSpace=wrap;html=1;" vertex="1" parent="1">
          <mxGeometry x="70" y="130" width="120" height="60" as="geometry" />
        </mxCell>
        <mxCell id="tO1ti88L_NxjMnnKhhtb-8" value="" style="edgeStyle=orthogonalEdgeStyle;rounded=0;orthogonalLoop=1;jettySize=auto;html=1;" edge="1" parent="1">
          <mxGeometry relative="1" as="geometry">
            <mxPoint x="130" y="280" as="sourcePoint" />
            <mxPoint x="130" y="310" as="targetPoint" />
          </mxGeometry>
        </mxCell>
        <mxCell id="tO1ti88L_NxjMnnKhhtb-10" value="" style="edgeStyle=orthogonalEdgeStyle;rounded=0;orthogonalLoop=1;jettySize=auto;html=1;" edge="1" parent="1">
          <mxGeometry relative="1" as="geometry">
            <mxPoint x="130" y="430" as="targetPoint" />
            <mxPoint x="130" y="370" as="sourcePoint" />
          </mxGeometry>
        </mxCell>
        <mxCell id="tO1ti88L_NxjMnnKhhtb-19" value="&lt;font style=&quot;font-size: 18px;&quot;&gt;End&lt;/font&gt;" style="ellipse;whiteSpace=wrap;html=1;" vertex="1" parent="1">
          <mxGeometry x="780" y="680" width="120" height="80" as="geometry" />
        </mxCell>
        <mxCell id="tO1ti88L_NxjMnnKhhtb-23" value="" style="edgeStyle=orthogonalEdgeStyle;rounded=0;orthogonalLoop=1;jettySize=auto;html=1;" edge="1" parent="1" source="tO1ti88L_NxjMnnKhhtb-21" target="tO1ti88L_NxjMnnKhhtb-19">
          <mxGeometry relative="1" as="geometry" />
        </mxCell>
        <mxCell id="tO1ti88L_NxjMnnKhhtb-21" value="&lt;font style=&quot;font-size: 14px;&quot;&gt;Exiting. . .&amp;nbsp;&lt;/font&gt;" style="shape=parallelogram;perimeter=parallelogramPerimeter;whiteSpace=wrap;html=1;fixedSize=1;" vertex="1" parent="1">
          <mxGeometry x="780" y="560" width="120" height="60" as="geometry" />
        </mxCell>
        <mxCell id="tO1ti88L_NxjMnnKhhtb-28" value="" style="edgeStyle=orthogonalEdgeStyle;rounded=0;orthogonalLoop=1;jettySize=auto;html=1;" edge="1" parent="1" source="tO1ti88L_NxjMnnKhhtb-25" target="tO1ti88L_NxjMnnKhhtb-27">
          <mxGeometry relative="1" as="geometry" />
        </mxCell>
        <mxCell id="tO1ti88L_NxjMnnKhhtb-65" value="" style="edgeStyle=orthogonalEdgeStyle;rounded=0;orthogonalLoop=1;jettySize=auto;html=1;" edge="1" parent="1" source="tO1ti88L_NxjMnnKhhtb-25" target="tO1ti88L_NxjMnnKhhtb-64">
          <mxGeometry relative="1" as="geometry" />
        </mxCell>
        <mxCell id="tO1ti88L_NxjMnnKhhtb-25" value="Операція == 1" style="rhombus;whiteSpace=wrap;html=1;" vertex="1" parent="1">
          <mxGeometry x="70" y="430" width="120" height="80" as="geometry" />
        </mxCell>
        <mxCell id="tO1ti88L_NxjMnnKhhtb-32" value="" style="edgeStyle=orthogonalEdgeStyle;rounded=0;orthogonalLoop=1;jettySize=auto;html=1;" edge="1" parent="1" source="tO1ti88L_NxjMnnKhhtb-27" target="tO1ti88L_NxjMnnKhhtb-30">
          <mxGeometry relative="1" as="geometry" />
        </mxCell>
        <mxCell id="tO1ti88L_NxjMnnKhhtb-96" value="" style="edgeStyle=orthogonalEdgeStyle;rounded=0;orthogonalLoop=1;jettySize=auto;html=1;" edge="1" parent="1" source="tO1ti88L_NxjMnnKhhtb-27" target="tO1ti88L_NxjMnnKhhtb-95">
          <mxGeometry relative="1" as="geometry" />
        </mxCell>
        <mxCell id="tO1ti88L_NxjMnnKhhtb-27" value="Операція == 2" style="rhombus;whiteSpace=wrap;html=1;" vertex="1" parent="1">
          <mxGeometry x="250" y="430" width="120" height="80" as="geometry" />
        </mxCell>
        <mxCell id="tO1ti88L_NxjMnnKhhtb-29" value="&lt;font style=&quot;font-size: 14px;&quot;&gt;NO&lt;/font&gt;" style="text;strokeColor=none;align=center;fillColor=none;html=1;verticalAlign=middle;whiteSpace=wrap;rounded=0;" vertex="1" parent="1">
          <mxGeometry x="180" y="440" width="60" height="30" as="geometry" />
        </mxCell>
        <mxCell id="tO1ti88L_NxjMnnKhhtb-35" value="" style="edgeStyle=orthogonalEdgeStyle;rounded=0;orthogonalLoop=1;jettySize=auto;html=1;" edge="1" parent="1" source="tO1ti88L_NxjMnnKhhtb-30" target="tO1ti88L_NxjMnnKhhtb-34">
          <mxGeometry relative="1" as="geometry" />
        </mxCell>
        <mxCell id="tO1ti88L_NxjMnnKhhtb-103" value="" style="edgeStyle=orthogonalEdgeStyle;rounded=0;orthogonalLoop=1;jettySize=auto;html=1;" edge="1" parent="1" source="tO1ti88L_NxjMnnKhhtb-30" target="tO1ti88L_NxjMnnKhhtb-102">
          <mxGeometry relative="1" as="geometry" />
        </mxCell>
        <mxCell id="tO1ti88L_NxjMnnKhhtb-30" value="Операція == 3" style="rhombus;whiteSpace=wrap;html=1;" vertex="1" parent="1">
          <mxGeometry x="410" y="430" width="120" height="80" as="geometry" />
        </mxCell>
        <mxCell id="tO1ti88L_NxjMnnKhhtb-31" value="&lt;font style=&quot;font-size: 14px;&quot;&gt;NO&lt;/font&gt;" style="text;strokeColor=none;align=center;fillColor=none;html=1;verticalAlign=middle;whiteSpace=wrap;rounded=0;" vertex="1" parent="1">
          <mxGeometry x="360" y="430" width="60" height="30" as="geometry" />
        </mxCell>
        <mxCell id="tO1ti88L_NxjMnnKhhtb-44" value="" style="edgeStyle=orthogonalEdgeStyle;rounded=0;orthogonalLoop=1;jettySize=auto;html=1;" edge="1" parent="1" source="tO1ti88L_NxjMnnKhhtb-34" target="tO1ti88L_NxjMnnKhhtb-43">
          <mxGeometry relative="1" as="geometry" />
        </mxCell>
        <mxCell id="tO1ti88L_NxjMnnKhhtb-49" value="" style="edgeStyle=orthogonalEdgeStyle;rounded=0;orthogonalLoop=1;jettySize=auto;html=1;" edge="1" parent="1" source="tO1ti88L_NxjMnnKhhtb-34" target="tO1ti88L_NxjMnnKhhtb-48">
          <mxGeometry relative="1" as="geometry" />
        </mxCell>
        <mxCell id="tO1ti88L_NxjMnnKhhtb-34" value="Введено недійсну операцію" style="rhombus;whiteSpace=wrap;html=1;" vertex="1" parent="1">
          <mxGeometry x="570" y="420" width="140" height="100" as="geometry" />
        </mxCell>
        <mxCell id="tO1ti88L_NxjMnnKhhtb-36" value="&lt;font style=&quot;font-size: 14px;&quot;&gt;NO&lt;/font&gt;" style="text;strokeColor=none;align=center;fillColor=none;html=1;verticalAlign=middle;whiteSpace=wrap;rounded=0;" vertex="1" parent="1">
          <mxGeometry x="520" y="430" width="60" height="30" as="geometry" />
        </mxCell>
        <mxCell id="tO1ti88L_NxjMnnKhhtb-40" value="&lt;font style=&quot;font-size: 14px;&quot;&gt;YES&lt;/font&gt;" style="text;strokeColor=none;align=center;fillColor=none;html=1;verticalAlign=middle;whiteSpace=wrap;rounded=0;" vertex="1" parent="1">
          <mxGeometry x="630" y="390" width="60" height="30" as="geometry" />
        </mxCell>
        <mxCell id="tO1ti88L_NxjMnnKhhtb-43" value="Invalid input" style="shape=parallelogram;perimeter=parallelogramPerimeter;whiteSpace=wrap;html=1;fixedSize=1;" vertex="1" parent="1">
          <mxGeometry x="580" y="320" width="120" height="60" as="geometry" />
        </mxCell>
        <mxCell id="tO1ti88L_NxjMnnKhhtb-46" value="" style="endArrow=none;html=1;rounded=0;exitX=0.5;exitY=0;exitDx=0;exitDy=0;" edge="1" parent="1" source="tO1ti88L_NxjMnnKhhtb-43">
          <mxGeometry width="50" height="50" relative="1" as="geometry">
            <mxPoint x="650" y="490" as="sourcePoint" />
            <mxPoint x="640" y="240" as="targetPoint" />
          </mxGeometry>
        </mxCell>
        <mxCell id="tO1ti88L_NxjMnnKhhtb-47" value="" style="endArrow=classic;html=1;rounded=0;entryX=1.013;entryY=0.345;entryDx=0;entryDy=0;entryPerimeter=0;" edge="1" parent="1">
          <mxGeometry width="50" height="50" relative="1" as="geometry">
            <mxPoint x="640" y="240" as="sourcePoint" />
            <mxPoint x="191.55999999999995" y="240.70000000000005" as="targetPoint" />
          </mxGeometry>
        </mxCell>
        <mxCell id="tO1ti88L_NxjMnnKhhtb-53" value="" style="edgeStyle=orthogonalEdgeStyle;rounded=0;orthogonalLoop=1;jettySize=auto;html=1;" edge="1" parent="1" source="tO1ti88L_NxjMnnKhhtb-48" target="tO1ti88L_NxjMnnKhhtb-21">
          <mxGeometry relative="1" as="geometry" />
        </mxCell>
        <mxCell id="tO1ti88L_NxjMnnKhhtb-48" value="Операція == 0" style="rhombus;whiteSpace=wrap;html=1;" vertex="1" parent="1">
          <mxGeometry x="770" y="420" width="140" height="100" as="geometry" />
        </mxCell>
        <mxCell id="tO1ti88L_NxjMnnKhhtb-50" value="&lt;font style=&quot;font-size: 14px;&quot;&gt;NO&lt;/font&gt;" style="text;strokeColor=none;align=center;fillColor=none;html=1;verticalAlign=middle;whiteSpace=wrap;rounded=0;" vertex="1" parent="1">
          <mxGeometry x="700" y="430" width="60" height="30" as="geometry" />
        </mxCell>
        <mxCell id="tO1ti88L_NxjMnnKhhtb-51" value="&lt;font style=&quot;font-size: 14px;&quot;&gt;YES&lt;/font&gt;" style="text;strokeColor=none;align=center;fillColor=none;html=1;verticalAlign=middle;whiteSpace=wrap;rounded=0;" vertex="1" parent="1">
          <mxGeometry x="830" y="520" width="60" height="30" as="geometry" />
        </mxCell>
        <mxCell id="tO1ti88L_NxjMnnKhhtb-54" style="edgeStyle=orthogonalEdgeStyle;rounded=0;orthogonalLoop=1;jettySize=auto;html=1;exitX=0.5;exitY=1;exitDx=0;exitDy=0;" edge="1" parent="1" source="tO1ti88L_NxjMnnKhhtb-51" target="tO1ti88L_NxjMnnKhhtb-51">
          <mxGeometry relative="1" as="geometry" />
        </mxCell>
        <mxCell id="tO1ti88L_NxjMnnKhhtb-55" value="&lt;font style=&quot;font-size: 14px;&quot;&gt;NO&lt;/font&gt;" style="text;strokeColor=none;align=center;fillColor=none;html=1;verticalAlign=middle;whiteSpace=wrap;rounded=0;" vertex="1" parent="1">
          <mxGeometry x="840" y="370" width="60" height="30" as="geometry" />
        </mxCell>
        <mxCell id="tO1ti88L_NxjMnnKhhtb-56" value="" style="endArrow=none;html=1;rounded=0;exitX=0.5;exitY=0;exitDx=0;exitDy=0;" edge="1" parent="1" source="tO1ti88L_NxjMnnKhhtb-48">
          <mxGeometry width="50" height="50" relative="1" as="geometry">
            <mxPoint x="720" y="410" as="sourcePoint" />
            <mxPoint x="840" y="350" as="targetPoint" />
          </mxGeometry>
        </mxCell>
        <mxCell id="tO1ti88L_NxjMnnKhhtb-57" value="" style="endArrow=classic;html=1;rounded=0;entryX=1;entryY=0.5;entryDx=0;entryDy=0;" edge="1" parent="1" target="tO1ti88L_NxjMnnKhhtb-43">
          <mxGeometry width="50" height="50" relative="1" as="geometry">
            <mxPoint x="840" y="350" as="sourcePoint" />
            <mxPoint x="770" y="360" as="targetPoint" />
          </mxGeometry>
        </mxCell>
        <mxCell id="tO1ti88L_NxjMnnKhhtb-82" value="" style="edgeStyle=orthogonalEdgeStyle;rounded=0;orthogonalLoop=1;jettySize=auto;html=1;" edge="1" parent="1" source="tO1ti88L_NxjMnnKhhtb-58" target="tO1ti88L_NxjMnnKhhtb-69">
          <mxGeometry relative="1" as="geometry">
            <Array as="points">
              <mxPoint x="130" y="1250" />
            </Array>
          </mxGeometry>
        </mxCell>
        <mxCell id="tO1ti88L_NxjMnnKhhtb-58" value="Виведення списку&amp;nbsp;&lt;br&gt;книжок" style="shape=parallelogram;perimeter=parallelogramPerimeter;whiteSpace=wrap;html=1;fixedSize=1;" vertex="1" parent="1">
          <mxGeometry x="60" y="680" width="140" height="60" as="geometry" />
        </mxCell>
        <mxCell id="tO1ti88L_NxjMnnKhhtb-66" value="" style="edgeStyle=orthogonalEdgeStyle;rounded=0;orthogonalLoop=1;jettySize=auto;html=1;" edge="1" parent="1" source="tO1ti88L_NxjMnnKhhtb-64" target="tO1ti88L_NxjMnnKhhtb-58">
          <mxGeometry relative="1" as="geometry" />
        </mxCell>
        <mxCell id="tO1ti88L_NxjMnnKhhtb-64" value="&lt;font style=&quot;font-size: 14px;&quot;&gt;і = 0, Library.size()&lt;/font&gt;" style="shape=hexagon;perimeter=hexagonPerimeter2;whiteSpace=wrap;html=1;fixedSize=1;" vertex="1" parent="1">
          <mxGeometry x="50" y="553.33" width="160" height="73.33" as="geometry" />
        </mxCell>
        <mxCell id="tO1ti88L_NxjMnnKhhtb-83" value="" style="edgeStyle=orthogonalEdgeStyle;rounded=0;orthogonalLoop=1;jettySize=auto;html=1;" edge="1" parent="1" source="tO1ti88L_NxjMnnKhhtb-69" target="tO1ti88L_NxjMnnKhhtb-74">
          <mxGeometry relative="1" as="geometry" />
        </mxCell>
        <mxCell id="tO1ti88L_NxjMnnKhhtb-69" value="Запит чи користувач хоче продовжити" style="rhombus;whiteSpace=wrap;html=1;" vertex="1" parent="1">
          <mxGeometry x="40" y="1200" width="180" height="150" as="geometry" />
        </mxCell>
        <mxCell id="tO1ti88L_NxjMnnKhhtb-74" value="Thanks for visiting!" style="shape=parallelogram;perimeter=parallelogramPerimeter;whiteSpace=wrap;html=1;fixedSize=1;" vertex="1" parent="1">
          <mxGeometry x="360" y="1245" width="140" height="60" as="geometry" />
        </mxCell>
        <mxCell id="tO1ti88L_NxjMnnKhhtb-84" value="&lt;font style=&quot;font-size: 14px;&quot;&gt;NO&lt;/font&gt;" style="text;strokeColor=none;align=center;fillColor=none;html=1;verticalAlign=middle;whiteSpace=wrap;rounded=0;" vertex="1" parent="1">
          <mxGeometry x="270" y="1230" width="60" height="30" as="geometry" />
        </mxCell>
        <mxCell id="tO1ti88L_NxjMnnKhhtb-88" value="&lt;font style=&quot;font-size: 14px;&quot;&gt;YES&lt;/font&gt;" style="text;strokeColor=none;align=center;fillColor=none;html=1;verticalAlign=middle;whiteSpace=wrap;rounded=0;" vertex="1" parent="1">
          <mxGeometry x="-20" y="1250" width="60" height="30" as="geometry" />
        </mxCell>
        <mxCell id="tO1ti88L_NxjMnnKhhtb-91" value="" style="endArrow=none;html=1;rounded=0;" edge="1" parent="1">
          <mxGeometry width="50" height="50" relative="1" as="geometry">
            <mxPoint x="-80" y="1280" as="sourcePoint" />
            <mxPoint x="-81" y="350" as="targetPoint" />
          </mxGeometry>
        </mxCell>
        <mxCell id="tO1ti88L_NxjMnnKhhtb-92" value="" style="endArrow=classic;html=1;rounded=0;entryX=-0.006;entryY=0.631;entryDx=0;entryDy=0;entryPerimeter=0;" edge="1" parent="1">
          <mxGeometry width="50" height="50" relative="1" as="geometry">
            <mxPoint x="-80" y="350" as="sourcePoint" />
            <mxPoint x="69.2800000000002" y="347.86" as="targetPoint" />
          </mxGeometry>
        </mxCell>
        <mxCell id="tO1ti88L_NxjMnnKhhtb-94" value="" style="endArrow=none;html=1;rounded=0;entryX=0;entryY=0.5;entryDx=0;entryDy=0;" edge="1" parent="1" target="tO1ti88L_NxjMnnKhhtb-69">
          <mxGeometry width="50" height="50" relative="1" as="geometry">
            <mxPoint x="-80" y="1280" as="sourcePoint" />
            <mxPoint x="210" y="1160" as="targetPoint" />
          </mxGeometry>
        </mxCell>
        <mxCell id="tO1ti88L_NxjMnnKhhtb-99" value="" style="edgeStyle=orthogonalEdgeStyle;rounded=0;orthogonalLoop=1;jettySize=auto;html=1;" edge="1" parent="1" source="tO1ti88L_NxjMnnKhhtb-95" target="tO1ti88L_NxjMnnKhhtb-98">
          <mxGeometry relative="1" as="geometry" />
        </mxCell>
        <mxCell id="tO1ti88L_NxjMnnKhhtb-95" value="Введення назви книги" style="shape=parallelogram;perimeter=parallelogramPerimeter;whiteSpace=wrap;html=1;fixedSize=1;" vertex="1" parent="1">
          <mxGeometry x="250" y="560" width="120" height="60" as="geometry" />
        </mxCell>
        <mxCell id="tO1ti88L_NxjMnnKhhtb-97" value="&lt;font style=&quot;font-size: 14px;&quot;&gt;YES&lt;/font&gt;" style="text;strokeColor=none;align=center;fillColor=none;html=1;verticalAlign=middle;whiteSpace=wrap;rounded=0;" vertex="1" parent="1">
          <mxGeometry x="300" y="520" width="60" height="30" as="geometry" />
        </mxCell>
        <mxCell id="tO1ti88L_NxjMnnKhhtb-98" value="Повернення книги" style="rounded=0;whiteSpace=wrap;html=1;" vertex="1" parent="1">
          <mxGeometry x="250" y="650" width="120" height="60" as="geometry" />
        </mxCell>
        <mxCell id="tO1ti88L_NxjMnnKhhtb-100" value="" style="endArrow=none;html=1;rounded=0;exitX=0.5;exitY=1;exitDx=0;exitDy=0;" edge="1" parent="1" source="tO1ti88L_NxjMnnKhhtb-98">
          <mxGeometry width="50" height="50" relative="1" as="geometry">
            <mxPoint x="350" y="860" as="sourcePoint" />
            <mxPoint x="310" y="840" as="targetPoint" />
          </mxGeometry>
        </mxCell>
        <mxCell id="tO1ti88L_NxjMnnKhhtb-101" value="" style="endArrow=classic;html=1;rounded=0;" edge="1" parent="1">
          <mxGeometry width="50" height="50" relative="1" as="geometry">
            <mxPoint x="310" y="840" as="sourcePoint" />
            <mxPoint x="130" y="840" as="targetPoint" />
          </mxGeometry>
        </mxCell>
        <mxCell id="tO1ti88L_NxjMnnKhhtb-107" value="" style="edgeStyle=orthogonalEdgeStyle;rounded=0;orthogonalLoop=1;jettySize=auto;html=1;" edge="1" parent="1" source="tO1ti88L_NxjMnnKhhtb-102" target="tO1ti88L_NxjMnnKhhtb-106">
          <mxGeometry relative="1" as="geometry" />
        </mxCell>
        <mxCell id="tO1ti88L_NxjMnnKhhtb-102" value="Введення назви книги" style="shape=parallelogram;perimeter=parallelogramPerimeter;whiteSpace=wrap;html=1;fixedSize=1;" vertex="1" parent="1">
          <mxGeometry x="410" y="560" width="120" height="60" as="geometry" />
        </mxCell>
        <mxCell id="tO1ti88L_NxjMnnKhhtb-104" value="&lt;font style=&quot;font-size: 14px;&quot;&gt;YES&lt;/font&gt;" style="text;strokeColor=none;align=center;fillColor=none;html=1;verticalAlign=middle;whiteSpace=wrap;rounded=0;" vertex="1" parent="1">
          <mxGeometry x="460" y="520" width="60" height="30" as="geometry" />
        </mxCell>
        <mxCell id="tO1ti88L_NxjMnnKhhtb-109" value="" style="edgeStyle=orthogonalEdgeStyle;rounded=0;orthogonalLoop=1;jettySize=auto;html=1;" edge="1" parent="1" source="tO1ti88L_NxjMnnKhhtb-106">
          <mxGeometry relative="1" as="geometry">
            <mxPoint x="470" y="790" as="targetPoint" />
          </mxGeometry>
        </mxCell>
        <mxCell id="tO1ti88L_NxjMnnKhhtb-117" value="" style="edgeStyle=orthogonalEdgeStyle;rounded=0;orthogonalLoop=1;jettySize=auto;html=1;" edge="1" parent="1" source="tO1ti88L_NxjMnnKhhtb-106" target="tO1ti88L_NxjMnnKhhtb-116">
          <mxGeometry relative="1" as="geometry" />
        </mxCell>
        <mxCell id="tO1ti88L_NxjMnnKhhtb-106" value="Перевірка наявності" style="rhombus;whiteSpace=wrap;html=1;" vertex="1" parent="1">
          <mxGeometry x="420" y="650" width="100" height="80" as="geometry" />
        </mxCell>
        <mxCell id="tO1ti88L_NxjMnnKhhtb-110" value="&lt;font style=&quot;font-size: 14px;&quot;&gt;YES&lt;/font&gt;" style="text;strokeColor=none;align=center;fillColor=none;html=1;verticalAlign=middle;whiteSpace=wrap;rounded=0;" vertex="1" parent="1">
          <mxGeometry x="414" y="750" width="60" height="30" as="geometry" />
        </mxCell>
        <mxCell id="tO1ti88L_NxjMnnKhhtb-114" value="" style="edgeStyle=orthogonalEdgeStyle;rounded=0;orthogonalLoop=1;jettySize=auto;html=1;" edge="1" parent="1" source="tO1ti88L_NxjMnnKhhtb-112" target="tO1ti88L_NxjMnnKhhtb-113">
          <mxGeometry relative="1" as="geometry" />
        </mxCell>
        <mxCell id="tO1ti88L_NxjMnnKhhtb-112" value="Книга видаляється з масиву" style="rounded=0;whiteSpace=wrap;html=1;" vertex="1" parent="1">
          <mxGeometry x="414" y="790" width="120" height="60" as="geometry" />
        </mxCell>
        <mxCell id="tO1ti88L_NxjMnnKhhtb-113" value="Повідомлення, що книга взята" style="shape=parallelogram;perimeter=parallelogramPerimeter;whiteSpace=wrap;html=1;fixedSize=1;" vertex="1" parent="1">
          <mxGeometry x="412" y="900" width="124" height="60" as="geometry" />
        </mxCell>
        <mxCell id="tO1ti88L_NxjMnnKhhtb-116" value="Повідомлення, що книги немає в асортименті" style="shape=parallelogram;perimeter=parallelogramPerimeter;whiteSpace=wrap;html=1;fixedSize=1;" vertex="1" parent="1">
          <mxGeometry x="550" y="660" width="130" height="60" as="geometry" />
        </mxCell>
        <mxCell id="tO1ti88L_NxjMnnKhhtb-118" value="" style="endArrow=none;html=1;rounded=0;exitX=0.5;exitY=1;exitDx=0;exitDy=0;" edge="1" parent="1">
          <mxGeometry width="50" height="50" relative="1" as="geometry">
            <mxPoint x="480" y="960" as="sourcePoint" />
            <mxPoint x="480" y="1040" as="targetPoint" />
          </mxGeometry>
        </mxCell>
        <mxCell id="tO1ti88L_NxjMnnKhhtb-120" value="" style="endArrow=classic;html=1;rounded=0;" edge="1" parent="1">
          <mxGeometry width="50" height="50" relative="1" as="geometry">
            <mxPoint x="610" y="1040" as="sourcePoint" />
            <mxPoint x="130" y="1040" as="targetPoint" />
          </mxGeometry>
        </mxCell>
        <mxCell id="tO1ti88L_NxjMnnKhhtb-121" value="" style="endArrow=none;html=1;rounded=0;exitX=0.46;exitY=0.989;exitDx=0;exitDy=0;exitPerimeter=0;" edge="1" parent="1" source="tO1ti88L_NxjMnnKhhtb-116">
          <mxGeometry width="50" height="50" relative="1" as="geometry">
            <mxPoint x="400" y="960" as="sourcePoint" />
            <mxPoint x="610" y="1040" as="targetPoint" />
          </mxGeometry>
        </mxCell>
        <mxCell id="fKr1wcBbO6wkeP43xNfp-1" value="&lt;font style=&quot;font-size: 14px;&quot;&gt;YES&lt;/font&gt;" style="text;strokeColor=none;align=center;fillColor=none;html=1;verticalAlign=middle;whiteSpace=wrap;rounded=0;" vertex="1" parent="1">
          <mxGeometry x="120" y="520" width="60" height="30" as="geometry" />
        </mxCell>
        <mxCell id="UejTRZ5zeXeiDjVOWG4x-1" value="Виведення списку операцій" style="shape=parallelogram;perimeter=parallelogramPerimeter;whiteSpace=wrap;html=1;fixedSize=1;" vertex="1" parent="1">
          <mxGeometry x="70" y="220" width="130" height="60" as="geometry" />
        </mxCell>
        <mxCell id="UejTRZ5zeXeiDjVOWG4x-2" value="Введення бажаної операції" style="shape=parallelogram;perimeter=parallelogramPerimeter;whiteSpace=wrap;html=1;fixedSize=1;" vertex="1" parent="1">
          <mxGeometry x="65" y="310" width="130" height="60" as="geometry" />
        </mxCell>
      </root>
    </mxGraphModel>
  </diagram>
</mxfile>
